# xmcd
#
# Track frame offsets:
#	150
#	21582
#	41847
#	59722
#	77307
#	96152
#	116617
#	134090
#	153765
#	171437
#	193757
#	214370
#
# Disc length: 3121 seconds
#
# Revision: 1
# Processed by: cddbd v1.5.1PL0 Copyright (c) Steve Scherf et al.
# Submitted via: EasyCDDAExtractor 7.1.0.1
#
DISCID=b20c2f0c
DTITLE=bendeniz - www.maximumenglish.net
DYEAR=2005
DGENRE=AlternRock
TTITLE0=kýrmýzý biber
TTITLE1=bu baharda 
TTITLE2=paþa paþa
TTITLE3=aþk yokmu aþk
TTITLE4=ilk gece
TTITLE5=bu baharda akustik
TTITLE6=boþver
TTITLE7=yazlar bitti kýþlar bitti
TTITLE8=býrak beni
TTITLE9=kör düðüm
TTITLE10=kaçamak
TTITLE11=bu baharda remix
EXTD=
EXTT0=
EXTT1=
EXTT2=
EXTT3=
EXTT4=
EXTT5=
EXTT6=
EXTT7=
EXTT8=
EXTT9=
EXTT10=
EXTT11=
PLAYORDER=
